<?xml version="1.0" encoding="UTF-8"?>
<svg width="700pt" height="700pt" version="1.1" viewBox="0 0 700 700" xmlns="http://www.w3.org/2000/svg" xmlns:xlink="http://www.w3.org/1999/xlink">
 <defs>
  <symbol id="u" overflow="visible">
   <path d="m6.9688-0.42188c-0.35547 0.1875-0.73047 0.32812-1.125 0.42188-0.38672 0.09375-0.79297 0.14062-1.2188 0.14062-1.2617 0-2.2617-0.34766-3-1.0469-0.74219-0.70703-1.1094-1.6641-1.1094-2.875 0-1.2188 0.36719-2.1758 1.1094-2.875 0.73828-0.70703 1.7383-1.0625 3-1.0625 0.42578 0 0.83203 0.046875 1.2188 0.14062 0.39453 0.09375 0.76953 0.23438 1.125 0.42188v1.5625c-0.36719-0.23828-0.72656-0.41406-1.0781-0.53125-0.34375-0.125-0.71484-0.1875-1.1094-0.1875-0.69922 0-1.2461 0.22656-1.6406 0.67188-0.39844 0.44922-0.59375 1.0703-0.59375 1.8594 0 0.78125 0.19531 1.3984 0.59375 1.8438 0.39453 0.44922 0.94141 0.67188 1.6406 0.67188 0.39453 0 0.76562-0.054687 1.1094-0.17188 0.35156-0.11328 0.71094-0.29688 1.0781-0.54688z"/>
  </symbol>
  <symbol id="d" overflow="visible">
   <path d="m5.0938-4.1406c-0.15625-0.070313-0.3125-0.125-0.46875-0.15625-0.15625-0.039063-0.3125-0.0625-0.46875-0.0625-0.46875 0-0.83594 0.15234-1.0938 0.45312-0.25 0.30469-0.375 0.73047-0.375 1.2812v2.625h-1.8125v-5.6875h1.8125v0.9375c0.23828-0.375 0.50781-0.64453 0.8125-0.8125 0.30078-0.17578 0.66406-0.26562 1.0938-0.26562 0.0625 0 0.125 0.007813 0.1875 0.015625 0.070312 0 0.17578 0.011719 0.3125 0.03125z"/>
  </symbol>
  <symbol id="b" overflow="visible">
   <path d="m6.5625-2.8594v0.51562h-4.2656c0.050781 0.42969 0.20703 0.75 0.46875 0.96875 0.25781 0.21094 0.62891 0.3125 1.1094 0.3125 0.38281 0 0.77344-0.054688 1.1719-0.17188 0.40625-0.11328 0.81641-0.28516 1.2344-0.51562v1.4062c-0.42969 0.15625-0.85938 0.27734-1.2969 0.35938-0.42969 0.082031-0.85547 0.125-1.2812 0.125-1.0312 0-1.8359-0.25781-2.4062-0.78125-0.5625-0.51953-0.84375-1.2539-0.84375-2.2031 0-0.92578 0.27344-1.6562 0.82812-2.1875 0.5625-0.53125 1.3359-0.79688 2.3281-0.79688 0.88281 0 1.5977 0.27344 2.1406 0.8125 0.53906 0.53125 0.8125 1.25 0.8125 2.1562zm-1.875-0.60938c0-0.34375-0.10547-0.61719-0.3125-0.82812-0.19922-0.21875-0.46094-0.32812-0.78125-0.32812-0.35547 0-0.64062 0.10156-0.85938 0.29688-0.21875 0.19922-0.35547 0.48438-0.40625 0.85938z"/>
  </symbol>
  <symbol id="l" overflow="visible">
   <path d="m3.4219-2.5625c-0.375 0-0.66406 0.070312-0.85938 0.20312-0.1875 0.125-0.28125 0.3125-0.28125 0.5625 0 0.23047 0.078125 0.41406 0.23438 0.54688 0.15625 0.125 0.36719 0.1875 0.64062 0.1875 0.34375 0 0.62891-0.11719 0.85938-0.35938 0.23828-0.25 0.35938-0.5625 0.35938-0.9375v-0.20312zm2.7812-0.6875v3.25h-1.8281v-0.84375c-0.25 0.34375-0.52734 0.59375-0.82812 0.75-0.30469 0.15625-0.67188 0.23438-1.1094 0.23438-0.59375 0-1.0742-0.17188-1.4375-0.51562-0.36719-0.34375-0.54688-0.78516-0.54688-1.3281 0-0.66406 0.22656-1.1562 0.6875-1.4688 0.45703-0.3125 1.1758-0.46875 2.1562-0.46875h1.0781v-0.14062c0-0.28906-0.11719-0.50391-0.34375-0.64062-0.23047-0.13281-0.58594-0.20312-1.0625-0.20312-0.38672 0-0.75 0.042969-1.0938 0.125-0.33594 0.074219-0.64844 0.1875-0.9375 0.34375v-1.375c0.39453-0.10156 0.78516-0.17578 1.1719-0.21875 0.39453-0.050781 0.78906-0.078125 1.1875-0.078125 1.0312 0 1.7695 0.20312 2.2188 0.60938 0.45703 0.40625 0.6875 1.0625 0.6875 1.9688z"/>
  </symbol>
  <symbol id="a" overflow="visible">
   <path d="m2.8594-7.3125v1.625h1.875v1.2969h-1.875v2.4062c0 0.27344 0.050781 0.45312 0.15625 0.54688 0.10156 0.09375 0.3125 0.14062 0.625 0.14062h0.9375v1.2969h-1.5625c-0.71875 0-1.2305-0.14844-1.5312-0.45312-0.29297-0.30078-0.4375-0.8125-0.4375-1.5312v-2.4062h-0.90625v-1.2969h0.90625v-1.625z"/>
  </symbol>
  <symbol id="k" overflow="visible">
   <path d="m4.75-4.8594v-3.0469h1.8281v7.9062h-1.8281v-0.82812c-0.25 0.34375-0.52734 0.59375-0.82812 0.75-0.30469 0.14453-0.65234 0.21875-1.0469 0.21875-0.71094 0-1.2891-0.27344-1.7344-0.82812-0.44922-0.5625-0.67188-1.2812-0.67188-2.1562s0.22266-1.5859 0.67188-2.1406c0.44531-0.5625 1.0234-0.84375 1.7344-0.84375 0.38281 0 0.72656 0.078125 1.0312 0.23438 0.3125 0.15625 0.59375 0.40234 0.84375 0.73438zm-1.2031 3.6875c0.38281 0 0.67969-0.14062 0.89062-0.42188 0.20703-0.28906 0.3125-0.70703 0.3125-1.25 0-0.53906-0.10547-0.95312-0.3125-1.2344-0.21094-0.28125-0.50781-0.42188-0.89062-0.42188-0.38672 0-0.68359 0.14062-0.89062 0.42188-0.19922 0.28125-0.29688 0.69531-0.29688 1.2344 0 0.54297 0.097656 0.96094 0.29688 1.25 0.20703 0.28125 0.50391 0.42188 0.89062 0.42188z"/>
  </symbol>
  <symbol id="j" overflow="visible">
   <path d="m3.9062-1.1719c0.38281 0 0.67578-0.14062 0.875-0.42188 0.20703-0.28906 0.3125-0.70703 0.3125-1.25 0-0.53906-0.10547-0.95312-0.3125-1.2344-0.19922-0.28125-0.49219-0.42188-0.875-0.42188-0.39844 0-0.69922 0.14844-0.90625 0.4375-0.21094 0.28125-0.3125 0.6875-0.3125 1.2188 0 0.54297 0.10156 0.96094 0.3125 1.25 0.20703 0.28125 0.50781 0.42188 0.90625 0.42188zm-1.2188-3.6875c0.25-0.33203 0.52344-0.57812 0.82812-0.73438 0.3125-0.15625 0.66406-0.23438 1.0625-0.23438 0.69531 0 1.2695 0.28125 1.7188 0.84375 0.45703 0.55469 0.6875 1.2656 0.6875 2.1406s-0.23047 1.5938-0.6875 2.1562c-0.44922 0.55469-1.0234 0.82812-1.7188 0.82812-0.39844 0-0.75-0.078125-1.0625-0.23438-0.30469-0.15625-0.57812-0.39844-0.82812-0.73438v0.82812h-1.8125v-7.9062h1.8125z"/>
  </symbol>
  <symbol id="i" overflow="visible">
   <path d="m0.125-5.6875h1.8281l1.5156 3.8594 1.3125-3.8594h1.8125l-2.3906 6.2188c-0.24219 0.63281-0.52344 1.0781-0.84375 1.3281-0.32422 0.25781-0.74609 0.39062-1.2656 0.39062h-1.0469v-1.2031h0.5625c0.3125 0 0.53516-0.054687 0.67188-0.15625 0.14453-0.09375 0.25391-0.26562 0.32812-0.51562l0.046875-0.15625z"/>
  </symbol>
  <symbol id="h" overflow="visible">
   <path d="m0.046875-7.5938h1.9688l2.0156 5.6094 2-5.6094h1.9688l-2.8125 7.5938h-2.3281z"/>
  </symbol>
  <symbol id="g" overflow="visible">
   <path d="m5.4688-5.5156v1.4844c-0.25-0.16406-0.5-0.28906-0.75-0.375-0.24219-0.082031-0.49609-0.125-0.76562-0.125-0.51172 0-0.90625 0.15234-1.1875 0.45312-0.28125 0.29297-0.42188 0.70312-0.42188 1.2344s0.14062 0.94922 0.42188 1.25c0.28125 0.29297 0.67578 0.4375 1.1875 0.4375 0.28125 0 0.54688-0.039062 0.79688-0.125 0.25781-0.082031 0.5-0.20703 0.71875-0.375v1.4844c-0.28125 0.10547-0.57031 0.17969-0.85938 0.23438-0.29297 0.050781-0.58984 0.078125-0.89062 0.078125-1.0234 0-1.8242-0.25781-2.4062-0.78125-0.57422-0.53125-0.85938-1.2656-0.85938-2.2031s0.28516-1.6641 0.85938-2.1875c0.58203-0.53125 1.3828-0.79688 2.4062-0.79688 0.30078 0 0.59766 0.027344 0.89062 0.078125 0.28906 0.054688 0.57812 0.13281 0.85938 0.23438z"/>
  </symbol>
  <symbol id="c" overflow="visible">
   <path d="m3.5781-4.5312c-0.39844 0-0.70312 0.14844-0.92188 0.4375-0.21094 0.29297-0.3125 0.71094-0.3125 1.25 0 0.55469 0.10156 0.97656 0.3125 1.2656 0.21875 0.28125 0.52344 0.42188 0.92188 0.42188 0.39453 0 0.69531-0.14062 0.90625-0.42188 0.21875-0.28906 0.32812-0.71094 0.32812-1.2656 0-0.53906-0.10938-0.95703-0.32812-1.25-0.21094-0.28906-0.51172-0.4375-0.90625-0.4375zm0-1.2969c0.97656 0 1.7422 0.26562 2.2969 0.79688 0.55078 0.52344 0.82812 1.25 0.82812 2.1875s-0.27734 1.6719-0.82812 2.2031c-0.55469 0.52344-1.3203 0.78125-2.2969 0.78125-0.98047 0-1.7461-0.25781-2.2969-0.78125-0.55469-0.53125-0.82812-1.2656-0.82812-2.2031s0.27344-1.6641 0.82812-2.1875c0.55078-0.53125 1.3164-0.79688 2.2969-0.79688z"/>
  </symbol>
  <symbol id="t" overflow="visible">
   <path d="m5.3125-5.5156v1.3906c-0.38672-0.16406-0.76172-0.28906-1.125-0.375-0.36719-0.082031-0.70312-0.125-1.0156-0.125-0.35547 0-0.61719 0.046875-0.78125 0.14062-0.16797 0.085937-0.25 0.21484-0.25 0.39062 0 0.14844 0.0625 0.26172 0.1875 0.34375 0.13281 0.074219 0.36328 0.13281 0.6875 0.17188l0.32812 0.046875c0.92578 0.11719 1.5508 0.30859 1.875 0.57812 0.32031 0.27344 0.48438 0.69922 0.48438 1.2812 0 0.60547-0.22656 1.0586-0.67188 1.3594-0.44922 0.30469-1.1172 0.45312-2 0.45312-0.375 0-0.76562-0.03125-1.1719-0.09375-0.39844-0.050781-0.80859-0.13281-1.2344-0.25v-1.3906c0.36328 0.17969 0.73438 0.3125 1.1094 0.40625 0.38281 0.085938 0.77344 0.125 1.1719 0.125 0.35156 0 0.61719-0.046875 0.79688-0.14062 0.17578-0.10156 0.26562-0.25 0.26562-0.4375 0-0.16406-0.0625-0.28516-0.1875-0.35938-0.11719-0.082031-0.35938-0.14453-0.73438-0.1875l-0.3125-0.046875c-0.8125-0.10156-1.3867-0.28906-1.7188-0.5625-0.32422-0.28125-0.48438-0.69531-0.48438-1.25 0-0.60156 0.20703-1.0508 0.625-1.3438 0.41406-0.28906 1.0508-0.4375 1.9062-0.4375 0.33203 0 0.67969 0.027344 1.0469 0.078125 0.375 0.054688 0.77344 0.13281 1.2031 0.23438z"/>
  </symbol>
  <symbol id="f" overflow="visible">
   <path d="m0.95312-7.5938h3.25c0.96875 0 1.707 0.21875 2.2188 0.65625 0.51953 0.42969 0.78125 1.0391 0.78125 1.8281 0 0.79297-0.26172 1.4062-0.78125 1.8438-0.51172 0.42969-1.25 0.64062-2.2188 0.64062h-1.2969v2.625h-1.9531zm1.9531 1.4219v2.125h1.0938c0.375 0 0.66406-0.09375 0.875-0.28125 0.20703-0.1875 0.3125-0.44531 0.3125-0.78125 0-0.34375-0.10547-0.60156-0.3125-0.78125-0.21094-0.1875-0.5-0.28125-0.875-0.28125z"/>
  </symbol>
  <symbol id="s" overflow="visible">
   <path d="m0.875-5.6875h1.8125v5.6875h-1.8125zm0-2.2188h1.8125v1.4844h-1.8125z"/>
  </symbol>
  <symbol id="e" overflow="visible">
   <path d="m6.5938-3.4688v3.4688h-1.8281v-2.6562c0-0.48828-0.011719-0.82812-0.03125-1.0156-0.023437-0.1875-0.058594-0.32031-0.10938-0.40625-0.074219-0.125-0.17188-0.21875-0.29688-0.28125s-0.26562-0.09375-0.42188-0.09375c-0.375 0-0.67188 0.14844-0.89062 0.4375-0.21875 0.29297-0.32812 0.69922-0.32812 1.2188v2.7969h-1.8125v-5.6875h1.8125v0.82812c0.28125-0.33203 0.57031-0.57812 0.875-0.73438 0.3125-0.15625 0.65625-0.23438 1.0312-0.23438 0.65625 0 1.1484 0.20312 1.4844 0.60938 0.34375 0.39844 0.51562 0.98047 0.51562 1.75z"/>
  </symbol>
  <symbol id="r" overflow="visible">
   <path d="m4.625-7.9062v1.1875h-1.0156c-0.26172 0-0.44531 0.046875-0.54688 0.14062-0.09375 0.09375-0.14062 0.25781-0.14062 0.48438v0.40625h1.5469v1.2969h-1.5469v4.3906h-1.8125v-4.3906h-0.90625v-1.2969h0.90625v-0.40625c0-0.61328 0.17188-1.0664 0.51562-1.3594 0.34375-0.30078 0.875-0.45312 1.5938-0.45312z"/>
  </symbol>
  <symbol id="q" overflow="visible">
   <path d="m6.1406-4.75c0.23828-0.35156 0.51562-0.61719 0.82812-0.79688 0.3125-0.1875 0.66016-0.28125 1.0469-0.28125 0.65625 0 1.1484 0.20312 1.4844 0.60938 0.34375 0.39844 0.51562 0.98047 0.51562 1.75v3.4688h-1.8281v-2.9688c0.007812-0.039062 0.015625-0.082031 0.015625-0.125v-0.21875c0-0.39453-0.0625-0.67969-0.1875-0.85938-0.11719-0.1875-0.30469-0.28125-0.5625-0.28125-0.34375 0-0.61719 0.14062-0.8125 0.42188-0.1875 0.28125-0.28125 0.69531-0.28125 1.2344v2.7969h-1.8281v-2.9688c0-0.625-0.058594-1.0234-0.17188-1.2031-0.10547-0.1875-0.29688-0.28125-0.57812-0.28125-0.34375 0-0.61719 0.14844-0.8125 0.4375-0.1875 0.28125-0.28125 0.6875-0.28125 1.2188v2.7969h-1.8281v-5.6875h1.8281v0.82812c0.22656-0.32031 0.48438-0.5625 0.76562-0.71875 0.28906-0.16406 0.61328-0.25 0.96875-0.25 0.39453 0 0.74219 0.09375 1.0469 0.28125 0.30078 0.1875 0.52344 0.45312 0.67188 0.79688z"/>
  </symbol>
  <symbol id="p" overflow="visible">
   <path d="m6.5938-3.4688v3.4688h-1.8281v-2.6406c0-0.5-0.011719-0.84375-0.03125-1.0312-0.023437-0.1875-0.058594-0.32031-0.10938-0.40625-0.074219-0.125-0.17188-0.21875-0.29688-0.28125s-0.26562-0.09375-0.42188-0.09375c-0.375 0-0.67188 0.14844-0.89062 0.4375-0.21875 0.29297-0.32812 0.69922-0.32812 1.2188v2.7969h-1.8125v-7.9062h1.8125v3.0469c0.28125-0.33203 0.57031-0.57812 0.875-0.73438 0.3125-0.15625 0.65625-0.23438 1.0312-0.23438 0.65625 0 1.1484 0.20312 1.4844 0.60938 0.34375 0.39844 0.51562 0.98047 0.51562 1.75z"/>
  </symbol>
  <symbol id="o" overflow="visible">
   <path d="m0.95312-7.5938h2.1875l2.7656 5.2031v-5.2031h1.8438v7.5938h-2.1875l-2.75-5.2031v5.2031h-1.8594z"/>
  </symbol>
  <symbol id="n" overflow="visible">
   <path d="m0.8125-2.2188v-3.4688h1.8281v0.5625c0 0.3125-0.007813 0.70312-0.015625 1.1719v0.92188c0 0.46094 0.007812 0.79297 0.03125 1 0.03125 0.19922 0.078125 0.34375 0.14062 0.4375 0.070313 0.11719 0.16406 0.20312 0.28125 0.26562 0.125 0.0625 0.26562 0.09375 0.42188 0.09375 0.375 0 0.67188-0.14453 0.89062-0.4375 0.21875-0.28906 0.32812-0.69141 0.32812-1.2031v-2.8125h1.8125v5.6875h-1.8125v-0.82812c-0.28125 0.33594-0.57422 0.57812-0.875 0.73438-0.30469 0.15625-0.64062 0.23438-1.0156 0.23438-0.65625 0-1.1562-0.19531-1.5-0.59375-0.34375-0.40625-0.51562-0.99219-0.51562-1.7656z"/>
  </symbol>
  <symbol id="m" overflow="visible">
   <path d="m0.875-5.6875h1.8125v5.5781c0 0.76953-0.18359 1.3516-0.54688 1.75-0.36719 0.40625-0.89844 0.60938-1.5938 0.60938h-0.89062v-1.2031h0.3125c0.34375 0 0.57812-0.078125 0.70312-0.23438 0.13281-0.15625 0.20312-0.46484 0.20312-0.92188zm0-2.2188h1.8125v1.4844h-1.8125z"/>
  </symbol>
 </defs>
 <g>
  <path d="m577.82 147.25c10.715-9.8516 3.7852-32.59 2.6172-44.715-0.87109-9.0469 1.3125-23.32-7.3164-29.293-6.2266-4.3086-6.0195-2.4766-91.25-3.2461 0.35156-0.0625 0.69141-0.31641 0.77734-0.67969 2.0938-8.5117 10.398-29.531 4.4531-39.891 2.5938-0.085937 10.129 0.42969 11.996 0.53516 8.0312 0.45703 15.48-0.74219 23.461-1.1641 3.3359-0.17969 7.3008-1.5117 9.0898 1.9609 1.5391 2.9883 0.62109 8.5078 0.60156 11.715-0.050781 8.0508-0.4375 16.266-1.6016 24.234-0.21484 1.4844 1.707 2.4609 2.5469 1.0195 5.8594-10.09 6.4375-21.285 5.5742-32.719-0.35938-4.793-0.84375-9.9805-5.8008-12.145-7.0195-3.0625-17.41 0.65234-24.5 1.4336-7.3711 0.8125-16.465-1.2227-22.977 2.9609-5.9102-6.1719-17.816-3.3125-26.617-3.8438-9.1484-0.55078-18.895-1.582-27.789 1.0469-5.8242-7.6445-19.551-5.5508-28.973-5.6836-8.8789-0.12109-17.852 0.14453-26.336 2.6992-5.1328-6.5352-15.48-3.7969-23.438-3.3008-12.973 0.80859-25.855 2.25-38.719 4.0234-8.6836-14.223-24.398-5.6641-36.035-4.9453-4.2031 0.25781-12.391-0.49219-16.148 2.9688-3.2578-11.75-14.5-11.16-26.691-10.613-7.2422 0.32812-27.156 0.59766-35.734 6.8359-4.3633-5.9062-13.395-5.8516-21.121-4.6484-7.1328 1.1133-14.289 0.98047-21.336 2.0352-3.9219 0.58594-7.293 2.043-8.8438 5.9297-2.043 5.1172 0.70312 11.727 1.2109 16.887 0.90625 9.2266-0.92188 26.754 0.72266 31.449-13.75 0.53906-28.438 1.2539-32.133 17.008-2.9297 12.48 0.24609 27.5 0.85547 40.18 0.30859 6.4258 1.2617 13.926 6.6328 17.594-2.5938 1.6719-2.3906 6.8984 1.3164 7.125 9.7422 0.60156 19.109 2.5234 28.926 2.5625 36.711 0.14062 66.293 1.375 95.895 3.4336-2.2266 17.617-0.5625 35.887-0.5625 53.562 0 35.418 1.7539 50.812-5.4141 55.801-5.8398 4.0625-15.129 1.2539-21.926 1.7305-8.8984 0.625-23.152 5.0234-24.012-8.4531-1.0703-16.816 0.0625-33.512-1.7227-50.309 6.0078-11.996 2.5273-35.316-2.0664-49.012-0.43359-1.2852-2.7031-1.2656-2.5625 0.29297 1.0312 11.383 1.7031 23.188 0.83203 34.602-1.0078 13.215-3.2891 18.797-25.973 18.59-13.09-0.11328-19.336-4.8281-20.812-17.965-1.5039-13.352-2.8281-26.949-3.3047-40.375-0.074219-2.0898-3.0977-1.8203-3.4688 0.003906-2.2109 10.879-0.91016 21.688-0.25 32.668 1.1992 19.945 1.875 33.535 32.336 32.551 9.5156-0.30859 19.027-2.0391 24.023-9.2539-1.4609 12.758-2.5078 25.363-2.8125 38.266-0.15625 6.6758-1.6328 15.906 2.9414 21.555 4.1289 5.1016 11.352 4.8398 17.301 4.4922 10.859-0.63281 26.648 1.4844 34.004-1.832 1.2969 19.793-1.9414 46.352 7.4688 51.52 2.1875 1.2031 1.9805 1.4375 31.598 2.7031 7.8555 0.33594 18.082 2.1523 26.539 0.10938-1.1211 8.1523-1.2344 16.152-0.66406 24.387 0.48047 6.8828 0.054688 15.879 2.1445 22.484 2.4492 7.75 12.344 9.2734 19.469 9.7539 13.094 0.89062 36.25-1.1445 41.77-2.3867 0.60938 30.625-7.8906 46.059 9.1094 49.879 7.6836 1.7266 15.984 0.38281 23.762 0.52344 4.3281 0.078125 9.4414 1.0547 13.797-0.22266 0.48047 8.625-0.27734 17.473 0.51953 26.07 0.67578 7.3281-0.39453 18.227 4.0898 24.684 7.7734 11.191 31.734 7.5781 43.457 7.4766 14.855-0.12891 19.34-2.1328 18.172-21.055-1.5352-24.879-0.64844-49.316-1.0898-74.191-2.6875-152.27 6.7617-215.81-1.2773-235.97-0.30859-0.77344-1.6211-0.58984-1.5 0.30859 3.2695 23.996-6.0625 159.02-6.2148 190.96-0.074219 15.535 1.6172 31.055 1.8203 46.598 0.28516 21.91-1.8086 43.684 0.53125 65.57 0.47656 4.4609 2.0117 10.086 1.1836 14.434-1.2266 6.4219-4.7539 7.0781-10.641 7.3672-33.855 1.6562-40.68-1.1562-42.219-13.191-3.7422-29.273-1.707-30.656-3.6094-40.594 9.5625-6.5 5.8086-24.141 5.8398-33.555 0.0625-19.133 3.9258-38.137 4.918-57.238 2.125-40.891-3.0781-79.973-0.69141-120.55 1.0664-18.121 4.7461-41.266-3.4609-58.082-0.48047-0.98828-1.8008-0.56641-1.793 0.47656 0.15625 15.191 1.668 29.922 0.87109 45.215-0.82813 15.832-2.4141 31.672-2.25 47.539 0.33594 32.566 2.375 64.68-0.48047 97.238-1.3281 15.129-4.1875 30.16-4.3711 45.379-0.070313 5.8398 2.1484 16.293-0.25781 21.664-3.9102 8.7148-11.184 6.2617-18.891 6.3789-5.2773 0.078125-16.43 2.3555-21.164-0.69531-4.7031-3.0312-2.7891-11.527-2.5078-16.094 1.4688-23.805 0.66406-17.562-0.55859-27.996 12.086-5.7227 7.625-19.188 7.3359-30.145-0.22656-8.5195-0.17188-17.043-0.51172-25.562-0.71484-17.988-3.3711-35.867-4.1953-53.871-1.6641-36.277-2.0898-72.992-5.8867-109.14 39.855-0.074219 79.344-1.9258 119.12-4.6133 8.918-0.60156 17.863-0.82031 26.77-1.6406 7.4805-0.6875 14.781-2.3477 22.266-2.5234-1 37.383-2.4961 74.582-1.1211 111.99 1.4023 38.098 4.7227 76.457 4.1914 114.58-0.46875 33.602-3.4102 66.457-0.875 100.08 0.83594 11.074 1.2852 22.082 1.1484 33.18-0.050781 4.1602 2.1406 21.973-1.2266 24.836-1.8516 1.5742 0.64844 4.668 2.6602 3.3438 4.2188-2.7812 3.9414-12.789 4.2656-16.961 2.625-33.824-2.6484-58.613-2.1445-85.523 0.34375-18.457 1.832-36.867 2.1914-55.32 1.1094-57.281-8.9414-91.465-6.1211-230.21 8.9453 0.21484 21.738 1.4727 28.844-5.0586zm-106.25-116.31c4.3398 0.085938 7.168-1.2188 9.5625 4.2734 2.6953 6.1719-3.5117 22.102-0.12891 34.27 0.11719 0.41406 0.44922 0.55078 0.78906 0.51953-12.457-0.11328-22.543-0.24219-46.066 0.09375 2.582-12.488-0.14062-35.609-2.4453-41.57 12.836-0.57031 25.391 2.1602 38.289 2.4141zm-53.371-4.9219c7.3398 0.99219 8.5391 4.6367 9.7461 11.781 1.8008 10.637 1.3984 21.832 3.8086 32.355-19.859 0.31641-39.715 0.83203-59.578 1.2305 2.5859-11.105 8.7227-35.832 5.6523-45.852 13.359-1.3086 27.137-1.3047 40.371 0.48438zm-75.5 0.40625c5.5039-0.13672 21.359-3.6523 25.656 0.35156 6.8008 6.3359-3.7148 27.938-1.5273 44.715-22.074 0.41797-33.156 0.59766-55.891-0.37891 2.6797-12.285 9.0586-31.207 4.7148-44.43 9.0195 0.10156 18.016-0.035156 27.047-0.25781zm-79.695-0.82031c2.6992-2.7305 11.637-0.58594 15.152-0.64062 7.8789-0.125 24.418-6.7578 28.137 2.7031 5.082 12.922-0.41406 29.328 0.34766 43.254-15.527-0.73047-31.039-1.7617-46.562-2.6172 2.1992-9.7969 2.1992-20.352 2.1484-30.176-0.019531-3.6445 0.35156-7.9609 0.097656-12.133 0.26172-0.074219 0.50781-0.21484 0.67969-0.39062zm-34.293-8.875c7.6953 0.17578 22.18-2.6289 25.367 6.3828 3.168 8.9492-1.2656 35.348-0.70312 44.832-4.4062-0.22656-1.9805-0.21094-52.926-2.082 0.78125-7.3711 0.72656-14.805 0.71094-22.219-0.011718-6.7773 1.2305-14.242 0.26563-20.969-0.15625-1.0977-0.42578-2.0664-0.74219-2.9766 3.4453-4.7266 23.551-3.0742 28.027-2.9688zm-75.633 8.7461c1.0117-4.5977 6.0117-5.6328 9.6875-5.5234 14.68 0.4375 20.473-4.375 26.164-2.0547 10.125 4.125 1.9805 13.152 7.2383 47.836-17.363-0.39062-27.488 1.4453-43.629 2.2305 2.0391-11.102 2.9766-23.473 1.8164-34.688-0.23047-2.2109-1.6797-5.9805-1.2773-7.8008zm226.52 220.03c0.28906 13.73-0.12109 27.465 0.054688 41.195 0.17578 13.906 1.6641 27.738 1.8594 41.648 0.53125 37.812 1.4062 37.129-0.55469 40.996-2.2617-1.207-3.3789 1.7031-4.1172 4.1602-5.6602 3.0703-14.676 2.2695-21.445 2.7773-11.703 0.87891-31.219 6.5664-35.543-7.5273-1.3945-4.5469-3.5469-31.684-3.293-42.535 7.8438-3.1406 9.0273-8.2734 9.1484-16.625 0.50391-35.32-2.1445-66.379-3.1094-89.492-0.70312-16.848 0.75781-34.129-2.3359-50.723-0.21484-1.1523-1.8086-1.0859-2.0156 0.035156-3.9453 21.43-0.86328 44.961-0.57031 66.73 0.3125 23.121 0.49219 46.215 0.47656 69.336-0.003906 2.8984 0.80859 7.6758-0.51953 10.348-2.3281 4.6797-9.6367 4.5625-14.188 4.6484-10.852 0.21484-21.836-0.60156-32.699-0.70312-5.3203-0.046876-12.465 1.6094-14.973-4.1016-2.0312-4.6211-1.8828-11.719-2.2383-16.535-0.69531-9.375-1.3242-18.609-3.3086-27.73 12.246-9.2109 6.8906-35.895 6.1367-77.805-0.22266-12.484-0.12891-24.996-1.7773-37.363 39.164 2.6602 78.066 4.75 117.39 4.8555 1.5547 0.003906 3.1016-0.015625 4.6523-0.015625-2.3555 27.887 2.3789 56.52 2.9727 84.426zm157.84-101.17c-18.742 2.5117-37.562 3.2305-56.418 4.7188-78.934 6.2344-155.64 3.4258-234.95-1.9258-122.45-8.2617-120.64 8.375-121.52-31.586-0.23047-10.496-5.6133-28.637 3.7305-36.469 6.6641-5.5859 13.867-1.8633 42.34-3.7852 38.105-2.5703 115.71 5.0273 159.93 5.293 37.059 0.22266 74.09-1.9102 111.14-2.125 35.98-0.21094 71.996 1.3359 107.96 0.69141 4.7305-0.082031 12.871-1.8242 17.16 0.63281 6.1406 3.5195 4.1875 14.953 4.668 20.984 0.84766 10.66 9.6367 40.328-5.1992 43.25-9.2969 1.8398-19.34-0.95312-28.844 0.32031z"/>
  <path d="m482.82 489.89c-0.36328-1.0156-1.7422-0.65625-2.0938 0.13281-3.6523 8.2188-3.2305 20.465-2.9375 29.254 0.25391 7.5938 0.73047 17.48 6.3047 23.336 7.043 7.4023 21.086 6.2461 30.363 6.668 7.9258 0.35938 27.758 4.6133 32.234-4.1484 0.53906-1.0586 0.12891-2.4766-0.96094-3.0117-3.7305-1.8242-6.5195-0.45313-10.605-0.125-6.1523 0.48828-12.305-0.12109-18.453-0.33984-9.0469-0.32031-25.457 2.9336-30.066-6.9258-6.5859-14.082 1.1914-30.906-3.7852-44.84z"/>
  <path d="m186.06 91.125c-16.461-0.25-33.828-1.5664-50.141 0.85547-1.5273 0.22656-1.0312 2.293 0.25 2.4844 15.516 2.3477 31.887 1.5977 47.562 2.0117 63.469 1.6836 66.816-4.3711 2.3281-5.3516z"/>
  <path d="m309.03 121.9c-19.727-6.0234-43.086-3.4492-63.328-1.8867-1.918 0.14844-1.7422 2.7852 0.10156 2.9258 39.277 3.0234 47.938-0.98828 62.742 1.0039 1.168 0.15234 1.6406-1.6914 0.48438-2.043z"/>
  <path d="m503.73 99.469c0.65234-0.070312 0.85156-1.0234 0.14453-1.2031-25.176-6.3555-102.66 3.7422-128.63 4.0859-14.453 0.1875-28.941-2.207-43.363-0.84766-0.99219 0.09375-1.0547 1.6523-0.042968 1.7734 54.188 6.4727 46.387 2.5273 130.26-2.1133 13.879-0.76562 27.812-0.22266 41.629-1.6953z"/>
  <path d="m509.48 126.78c-16.379 0.34766-32.586 3.6445-48.973 4.4023-0.99219 0.046875-1.0547 1.7344-0.042968 1.7734 16.379 0.59766 33.582 0.9375 49.352-4.1641 0.96875-0.3125 0.68359-2.0312-0.33594-2.0117z"/>
  <use x="70" y="591.226563" xlink:href="#u"/>
  <use x="77.640625" y="591.226563" xlink:href="#d"/>
  <use x="82.773438" y="591.226563" xlink:href="#b"/>
  <use x="89.832031" y="591.226563" xlink:href="#l"/>
  <use x="96.855469" y="591.226563" xlink:href="#a"/>
  <use x="101.832031" y="591.226563" xlink:href="#b"/>
  <use x="108.890625" y="591.226563" xlink:href="#k"/>
  <use x="119.964844" y="591.226563" xlink:href="#j"/>
  <use x="127.417969" y="591.226563" xlink:href="#i"/>
  <use x="137.824219" y="591.226563" xlink:href="#h"/>
  <use x="145.882812" y="591.226563" xlink:href="#b"/>
  <use x="152.941406" y="591.226563" xlink:href="#g"/>
  <use x="159.109375" y="591.226563" xlink:href="#a"/>
  <use x="164.085938" y="591.226563" xlink:href="#c"/>
  <use x="171.238281" y="591.226563" xlink:href="#d"/>
  <use x="176.371094" y="591.226563" xlink:href="#t"/>
  <use x="186.191406" y="591.226563" xlink:href="#f"/>
  <use x="193.820312" y="591.226563" xlink:href="#c"/>
  <use x="200.96875" y="591.226563" xlink:href="#s"/>
  <use x="204.539063" y="591.226563" xlink:href="#e"/>
  <use x="211.949219" y="591.226563" xlink:href="#a"/>
  <use x="70" y="601.636719" xlink:href="#r"/>
  <use x="74.527344" y="601.636719" xlink:href="#d"/>
  <use x="79.660156" y="601.636719" xlink:href="#c"/>
  <use x="86.8125" y="601.636719" xlink:href="#q"/>
  <use x="101.28125" y="601.636719" xlink:href="#a"/>
  <use x="106.257812" y="601.636719" xlink:href="#p"/>
  <use x="113.667969" y="601.636719" xlink:href="#b"/>
  <use x="124.351562" y="601.636719" xlink:href="#o"/>
  <use x="133.0625" y="601.636719" xlink:href="#c"/>
  <use x="140.214844" y="601.636719" xlink:href="#n"/>
  <use x="147.625" y="601.636719" xlink:href="#e"/>
  <use x="158.660156" y="601.636719" xlink:href="#f"/>
  <use x="166.289062" y="601.636719" xlink:href="#d"/>
  <use x="171.421875" y="601.636719" xlink:href="#c"/>
  <use x="178.570312" y="601.636719" xlink:href="#m"/>
  <use x="182.140625" y="601.636719" xlink:href="#b"/>
  <use x="189.199219" y="601.636719" xlink:href="#g"/>
  <use x="195.371094" y="601.636719" xlink:href="#a"/>
 </g>
</svg>
